<?xml version="1.0" encoding="UTF-8"?>
<!DOCTYPE svg PUBLIC "-//W3C//DTD SVG 1.1//EN" "http://www.w3.org/Graphics/SVG/1.1/DTD/svg11.dtd">
<!-- Creator: CorelDRAW X7 -->
<svg xmlns="http://www.w3.org/2000/svg" xml:space="preserve" width="1.1811in" height="1.1811in" version="1.1" style="shape-rendering:geometricPrecision; text-rendering:geometricPrecision; image-rendering:optimizeQuality; fill-rule:evenodd; clip-rule:evenodd"
viewBox="0 0 1181 1181"
 xmlns:xlink="http://www.w3.org/1999/xlink">
 <defs>
  <style type="text/css">
   <![CDATA[
    .fil0 {fill:#348FE9}
   ]]>
  </style>
 </defs>
 <g id="Layer_x0020_1">
  <metadata id="CorelCorpID_0Corel-Layer"/>
  <path class="fil0" d="M699 38l25 0c37,2 73,14 106,36 29,19 50,42 67,73 24,42 35,94 24,142 -15,63 -42,120 -67,178l-141 279c-8,-6 -56,-98 -64,-114 -5,-11 -10,-18 -15,-29 -37,-74 -67,-133 -99,-211 -16,-41 -38,-95 -38,-147 0,-45 21,-98 50,-131 21,-23 43,-43 73,-56 25,-12 52,-18 79,-20zm-114 222c0,-45 8,-69 40,-100 34,-34 93,-45 138,-23 64,31 91,98 64,165 -19,47 -61,70 -111,77 -26,3 -70,-13 -90,-34 -22,-22 -41,-50 -41,-85zm-517 883c33,-19 98,-61 131,-82l130 -82 228 144c6,4 10,6 17,10 20,13 12,13 49,-10l229 -144 65 41c11,7 21,13 32,20 30,21 94,59 131,83l33 20c-2,-13 -8,-27 -12,-39l-89 -277c-6,-18 -57,-188 -65,-195 -2,-2 -12,-7 -15,-9l-80 -50c-3,16 -26,49 -27,61 7,2 14,7 20,11 8,5 13,8 21,13 7,4 13,8 20,13 9,5 12,6 16,18l97 305c-13,-8 -26,-16 -39,-24 -13,-8 -25,-17 -39,-25l-58 -36c-5,-3 -6,-3 -8,-9l-39 -207c-1,-10 -4,-20 -5,-29 -6,4 -15,26 -21,36 -4,7 -3,9 -2,16l25 133c3,13 12,59 12,69l-53 34c-19,12 -36,23 -55,35l-110 70 0 -356c5,-4 11,-7 16,-11l-23 -47c-6,-14 -2,-8 -11,-11l-102 -63c-6,-4 -10,-6 -16,-10l-58 -37c-9,2 -64,37 -74,44 -6,5 -12,8 -18,11l-73 47c-24,15 -17,10 -32,58l-134 414c-4,15 -11,32 -14,47zm312 -524l0 0zm0 0c0,11 -46,253 -50,274 -2,9 0,7 -6,12 -2,2 -8,5 -11,7 -15,9 -29,18 -44,27l-87 55c1,-11 84,-261 96,-300 4,-15 3,-15 14,-22 15,-8 29,-18 44,-27l44 -26zm37 -18c13,8 26,16 38,24l119 76 0 356c-28,-20 -126,-80 -161,-102 -18,-12 -36,-24 -55,-34 0,-13 4,-29 6,-41l45 -237c2,-11 7,-30 8,-42z"/>
 </g>
</svg>
