<?xml version="1.0" encoding="UTF-8"?>
<!DOCTYPE svg PUBLIC "-//W3C//DTD SVG 1.1//EN" "http://www.w3.org/Graphics/SVG/1.1/DTD/svg11.dtd">
<!-- Creator: CorelDRAW X7 -->
<svg xmlns="http://www.w3.org/2000/svg" xml:space="preserve" width="1.1811in" height="1.1811in" version="1.1" style="shape-rendering:geometricPrecision; text-rendering:geometricPrecision; image-rendering:optimizeQuality; fill-rule:evenodd; clip-rule:evenodd"
viewBox="0 0 1181 1181"
 xmlns:xlink="http://www.w3.org/1999/xlink">
 <defs>
  <style type="text/css">
   <![CDATA[
    .fil0 {fill:#348FE9}
    .fil1 {fill:#348FE9;fill-rule:nonzero}
   ]]>
  </style>
 </defs>
 <g id="Layer_x0020_1">
  <metadata id="CorelCorpID_0Corel-Layer"/>
  <g id="_961827984">
   <path class="fil0" d="M125 508l88 0c-6,39 11,80 46,102 47,31 111,17 141,-30l46 -72 145 0 143 0 47 72c30,47 94,61 141,30 35,-22 52,-63 46,-102l88 0 0 1c22,6 39,27 39,51 0,29 -24,53 -53,53l-13 0 -92 351c-10,44 -39,61 -79,62 -89,0 -178,0 -267,0 -90,0 -179,0 -268,0 -40,-1 -69,-18 -79,-62l-92 -351 -13 0c-29,0 -53,-24 -53,-53 0,-24 17,-45 39,-51l0 -1zm572 426c0,18 -14,32 -32,32 -18,0 -32,-14 -32,-32l0 -229c0,-18 14,-33 32,-33 18,0 32,15 32,33l0 229zm131 0c0,18 -15,32 -32,32 -18,0 -32,-14 -32,-32l0 -229c0,-18 14,-33 32,-33 17,0 32,15 32,33l0 229zm-410 0c0,18 -15,32 -33,32 -17,0 -32,-14 -32,-32l0 -229c0,-18 15,-33 32,-33 18,0 33,15 33,33l0 229zm130 0c0,18 -14,32 -32,32 -18,0 -32,-14 -32,-32l0 -229c0,-18 14,-33 32,-33 18,0 32,15 32,33l0 229z"/>
   <path class="fil1" d="M619 236c-16,-25 -9,-57 15,-73 25,-15 57,-8 73,16l204 317c16,24 9,57 -16,73 -24,15 -57,8 -72,-16l-204 -317z"/>
   <path class="fil1" d="M474 179c15,-24 48,-31 72,-16 25,16 32,48 16,73l-204 317c-15,24 -48,31 -72,16 -25,-16 -32,-49 -16,-73l204 -317z"/>
  </g>
 </g>
</svg>
