<?xml version="1.0" encoding="UTF-8"?>
<!DOCTYPE svg PUBLIC "-//W3C//DTD SVG 1.1//EN" "http://www.w3.org/Graphics/SVG/1.1/DTD/svg11.dtd">
<!-- Creator: CorelDRAW X7 -->
<svg xmlns="http://www.w3.org/2000/svg" xml:space="preserve" width="1.35666in" height="0.333331in" version="1.1" style="shape-rendering:geometricPrecision; text-rendering:geometricPrecision; image-rendering:optimizeQuality; fill-rule:evenodd; clip-rule:evenodd"
viewBox="0 0 1357 333"
 xmlns:xlink="http://www.w3.org/1999/xlink">
 <defs>
  <style type="text/css">
   <![CDATA[
    .fil0 {fill:#FFF212;fill-rule:nonzero}
    .fil1 {fill:#3E4095;fill-rule:nonzero}
   ]]>
  </style>
 </defs>
 <g id="Layer_x0020_1">
  <metadata id="CorelCorpID_0Corel-Layer"/>
  <g id="_326717584">
   <path class="fil0" d="M71 173l0 152c-4,0 -10,-1 -17,-2 -8,0 -13,-1 -17,-1 -4,0 -10,1 -17,1 -8,1 -13,2 -17,2l0 -314 173 0c-1,4 -2,8 -2,12 -1,5 -1,7 -1,8 1,7 2,13 3,19 -27,-2 -47,-4 -60,-4 -13,-1 -29,-2 -45,-2l0 99 47 0c16,0 35,-2 56,-5 -1,3 -1,7 -2,12 -1,4 -1,7 -1,8 1,7 2,13 3,19 -10,-1 -21,-1 -32,-2 -11,-1 -19,-2 -24,-2l-47 0zm159 24l0 -186c10,1 20,2 30,3 10,-1 20,-2 30,-3l0 130c0,14 0,29 0,44 0,15 1,29 2,42 3,15 6,25 7,29 3,8 8,16 15,23 12,14 28,20 45,20 19,0 34,-4 45,-12 11,-9 20,-23 27,-43 2,-7 4,-18 5,-33 2,-15 2,-35 2,-61l0 -139c4,1 6,1 8,2 2,0 4,0 8,0 2,0 5,0 8,-1 3,0 6,0 8,-1l0 162c0,35 -2,59 -6,74 -5,24 -18,44 -37,59 -10,8 -22,15 -34,19 -13,3 -27,5 -42,5 -28,0 -51,-5 -70,-16 -23,-13 -38,-33 -45,-60 -2,-9 -4,-19 -5,-27 -1,-9 -1,-19 -1,-30zm456 -126l-6 0c-5,-13 -12,-23 -20,-30 -9,-7 -20,-11 -33,-11 -16,0 -29,5 -37,13 -8,8 -12,19 -12,32 0,17 11,31 35,44 42,24 64,36 66,38 24,19 36,43 36,73 0,29 -11,53 -33,72 -23,19 -51,28 -86,28 -14,0 -27,-1 -39,-5 -13,-3 -24,-8 -35,-15 3,-10 6,-20 8,-30 3,-10 5,-19 6,-27l8 0c4,15 11,28 22,36 12,9 25,14 40,14 15,0 28,-4 38,-12 11,-9 16,-21 16,-35 0,-20 -12,-36 -35,-49 -22,-11 -43,-23 -65,-34 -23,-18 -35,-43 -35,-74 0,-28 9,-50 26,-68 19,-19 45,-28 78,-28 16,0 30,2 43,7 13,5 23,10 29,15 -3,7 -6,15 -9,24 -2,9 -4,16 -6,22zm80 126l0 -186c10,1 20,2 29,3 10,-1 20,-2 30,-3l0 130c0,14 0,29 1,44 0,15 1,29 2,42 3,15 5,25 7,29 3,8 8,16 15,23 12,14 27,20 45,20 19,0 34,-4 44,-12 11,-9 20,-23 28,-43 2,-7 4,-18 5,-33 1,-15 2,-35 2,-61l0 -139c3,1 6,1 8,2 1,0 4,0 7,0 3,0 6,0 9,-1 3,0 6,0 7,-1l0 162c0,35 -1,59 -5,74 -6,24 -18,44 -37,59 -10,8 -22,15 -35,19 -13,3 -26,5 -41,5 -28,0 -51,-5 -70,-16 -23,-13 -38,-33 -45,-60 -2,-9 -4,-19 -5,-27 -1,-9 -1,-19 -1,-30zm311 127l0 -313 45 0c65,71 131,142 196,214l0 -214c4,1 7,1 9,2 2,0 5,0 9,0l18 -2 0 314 -39 -1c-26,-29 -51,-58 -76,-87 -22,-24 -47,-52 -76,-83l-50 -52 0 222c-4,-1 -7,-1 -9,-1 -2,-1 -5,-1 -9,-1l-18 2z"/>
   <path class="fil1" d="M74 177l0 148 0 3 -3 0c-2,0 -5,0 -8,-1 -2,0 -6,0 -9,-1l-1 0c-3,0 -7,0 -9,-1 -3,0 -5,0 -7,0 -4,0 -9,1 -17,1l0 0c-4,1 -7,1 -10,1 -3,1 -5,1 -7,1l-3 0 0 -3 0 -314 0 -3 3 0 173 0 3 0 0 4c-1,1 -1,3 -1,5 -1,2 -1,5 -1,7l0 0c-1,2 -1,4 -1,5 0,1 0,2 0,2 1,6 2,13 3,19l0 4 -4 0c-13,-2 -25,-3 -35,-3 -10,-1 -18,-2 -24,-2 -7,-1 -14,-1 -22,-1 -6,-1 -13,-1 -20,-1l0 92 44 0c8,0 17,0 26,-1 9,0 19,-1 29,-3l4 -1 0 5c0,1 -1,3 -1,5 0,2 -1,4 -1,6 0,2 0,4 -1,6 0,1 0,2 0,2 1,3 1,6 1,9 1,3 1,6 2,10l0 4 -4 -1c-4,0 -9,-1 -15,-1 -5,0 -10,-1 -16,-1 -5,-1 -10,-1 -14,-1l0 0c-4,0 -7,0 -10,0l-44 0zm-7 145l0 -149 0 -3 4 0 47 0c3,0 6,0 11,1 4,0 8,0 14,1 5,0 11,0 16,1 3,0 7,0 11,1l-1 -6c0,-3 0,-6 -1,-9l0 -1c0,0 0,-1 0,-3 0,-1 1,-3 1,-6 0,-2 1,-4 1,-6l0 -1c-9,1 -18,2 -26,2 -9,1 -18,2 -26,2l-47 0 -4 0 0 -3 0 -99 0 -3 4 0c8,0 16,0 23,0 8,1 15,1 22,1l0 0c7,1 15,2 25,2 9,1 19,2 31,3 -1,-5 -1,-10 -2,-15l0 -1c0,0 0,-1 0,-3 0,-1 0,-3 1,-5l0 0c0,-3 0,-5 1,-7l0 -2 -166 0 0 308c1,0 2,-1 4,-1 3,0 6,0 10,-1l0 0c7,-1 13,-1 17,-1 2,0 4,0 7,0 3,1 6,1 10,1l0 0c4,1 7,1 10,1 1,0 2,0 3,1zm160 -125l0 -186 0 -3 3 0c5,1 10,1 15,2 5,0 10,1 15,1l1 0c10,-1 19,-2 28,-3l4 0 0 3 0 130c0,9 0,16 0,22 0,7 0,15 0,22 0,8 0,15 1,22 0,7 1,13 1,20l0 0c2,7 3,13 4,18 1,4 2,8 3,9l0 0c1,5 3,8 6,12 2,4 5,8 8,11l0 0c6,6 13,11 20,14 7,4 15,5 23,5 10,0 18,-1 25,-3 7,-2 13,-5 18,-9 5,-4 10,-9 14,-16 4,-7 8,-15 12,-25l0 0c1,-3 2,-8 3,-13 1,-5 2,-12 2,-19l0 0c1,-7 1,-16 2,-26 0,-10 0,-22 0,-35l0 -139 0 -3 4 0 4 1 0 0c2,0 3,0 4,1l0 0c0,0 1,0 2,0 1,0 3,0 5,0 2,0 5,0 8,-1l0 0 4 0 0 0c1,0 2,-1 3,-1l4 0 0 3 0 162c0,17 -1,32 -2,44 0,13 -2,23 -4,31l0 0c-3,12 -7,23 -14,33 -6,10 -14,19 -24,27 -5,4 -11,8 -17,12 -6,3 -12,6 -19,8l0 0c-6,1 -13,3 -20,4 -7,1 -14,1 -22,1 -14,0 -27,-1 -39,-4 -12,-2 -23,-7 -33,-12 -11,-7 -21,-15 -29,-26 -8,-10 -13,-22 -17,-36 -1,-5 -2,-10 -3,-14l0 0c0,-5 -1,-10 -2,-14l0 0c0,-5 -1,-9 -1,-14 0,-5 0,-10 0,-16zm6 -182l0 182c0,6 0,11 0,15 1,5 1,10 1,14l0 0c1,5 2,9 2,14l0 0c1,4 2,8 3,13 4,13 9,25 16,35 7,9 16,17 27,24 10,5 20,9 31,11 12,3 24,4 38,4 8,0 15,0 21,-1 7,-1 13,-2 20,-4l0 0c6,-2 12,-5 17,-8 6,-3 11,-6 16,-11l0 0c10,-7 17,-15 23,-25 6,-9 11,-20 13,-32l0 0c2,-7 3,-17 4,-29 1,-12 2,-27 2,-44l0 -158 -4 0 0 0c-4,1 -7,1 -9,1 -2,0 -4,0 -5,0 -1,0 -3,0 -4,0l0 0c0,0 -1,-1 -3,-1l0 0 -1 0 0 135c0,13 0,24 0,35 -1,10 -1,19 -2,27 0,7 -1,14 -2,19 -1,6 -2,10 -3,14l0 0c-4,10 -8,19 -13,26 -4,8 -10,13 -15,18l0 0c-6,5 -13,8 -21,10 -7,2 -16,3 -26,3 -9,0 -18,-1 -26,-5 -8,-3 -15,-9 -21,-16 -4,-4 -7,-7 -9,-12 -3,-4 -5,-8 -7,-12l0 0c-1,-3 -2,-6 -3,-11 -1,-5 -2,-11 -4,-18l0 0c0,-7 -1,-14 -2,-21 0,-7 0,-14 0,-22 0,-7 0,-15 0,-22 0,-9 -1,-17 -1,-22l0 -126c-7,0 -16,1 -24,2l-2 0 -1 0c-5,0 -10,-1 -14,-1 -4,-1 -8,-1 -12,-1zm453 59l-6 0 -2 0 -1 -2c-2,-6 -5,-12 -8,-17 -4,-4 -7,-8 -11,-12l0 0c-4,-3 -9,-5 -14,-7 -5,-2 -11,-3 -17,-3 -8,0 -15,1 -21,3 -5,2 -10,5 -14,9 -4,4 -7,8 -9,13 -1,5 -2,11 -2,17 0,8 2,15 8,22 5,7 14,13 25,20l0 0c21,11 37,20 49,27 11,6 17,10 18,11l0 0c13,9 22,21 28,33 6,13 9,27 9,42 0,15 -3,29 -9,41 -5,13 -14,24 -25,33 -12,10 -25,17 -40,22 -14,5 -31,7 -48,7 -7,0 -14,0 -21,-1l0 0c-6,-1 -13,-2 -19,-4 -7,-1 -13,-3 -19,-6 -6,-3 -11,-6 -16,-9l-2 -1 0 -3c2,-5 3,-10 4,-14 1,-5 3,-10 4,-15l0 0c1,-6 3,-10 3,-15 1,-4 2,-8 3,-13l0 -2 3 0 8 0 2 0 1 2c2,8 4,14 8,20 3,6 8,11 13,15l0 0c6,4 11,8 18,10 6,2 13,3 20,3 8,0 14,-1 20,-3 6,-2 11,-5 16,-8l0 0c5,-4 9,-9 11,-15 3,-5 4,-11 4,-18 0,-10 -3,-18 -8,-25 -6,-8 -14,-15 -25,-21l0 0c-11,-6 -22,-11 -33,-17 -11,-6 -22,-12 -32,-18l-1 0c-12,-9 -21,-20 -27,-33 -6,-13 -9,-27 -9,-43 0,-14 2,-27 7,-39 4,-11 11,-22 20,-31 10,-10 21,-17 35,-22 13,-5 28,-7 45,-7 8,0 16,1 23,2 7,1 14,3 21,5l0 0c7,2 12,5 17,7 5,3 9,6 13,9l1 1 -1 2c-1,4 -2,8 -4,12 -1,4 -2,8 -4,12l0 0c-2,8 -4,14 -5,19l-1 3 -1 2 -2 0zm-4 -6l2 0 0 -1c1,-4 3,-11 6,-18l0 0c1,-5 2,-9 4,-13 1,-4 2,-7 3,-10 -3,-2 -6,-4 -10,-6 -4,-3 -10,-5 -16,-7l0 0c-6,-2 -13,-4 -20,-5 -7,-1 -14,-2 -22,-2 -16,0 -31,2 -43,7 -13,5 -24,11 -33,20 -8,9 -14,19 -19,30 -4,10 -6,22 -6,36 0,15 3,28 9,40 5,12 14,22 25,31 11,6 21,12 32,17 10,6 21,11 32,18l1 0c12,6 21,14 27,22 6,9 9,18 9,29 0,7 -1,15 -4,21 -3,6 -8,12 -13,17l0 0c-6,4 -12,7 -18,9 -7,2 -14,3 -22,3 -8,0 -15,-1 -22,-4 -7,-2 -14,-5 -20,-10l0 0c-5,-5 -10,-10 -14,-17 -4,-6 -7,-12 -8,-19l-4 0c0,3 -1,7 -2,11 0,4 -2,9 -3,14l0 0c-1,5 -2,10 -4,15 -1,5 -2,9 -3,13 4,3 9,5 14,7 5,3 11,5 17,6 6,2 13,3 19,4l0 0c6,1 13,1 20,1 17,0 32,-2 46,-7 14,-4 27,-11 38,-20 10,-9 18,-20 24,-31 5,-12 8,-25 8,-39 0,-14 -3,-27 -9,-39 -5,-12 -14,-22 -25,-31l-1 0c-1,-1 -6,-5 -17,-11 -11,-6 -27,-15 -49,-27l0 0c-12,-7 -21,-14 -27,-22 -6,-7 -10,-16 -10,-25 0,-7 2,-13 4,-19 2,-6 5,-11 10,-15 4,-5 10,-8 16,-10 7,-3 15,-4 23,-4 7,0 13,1 19,3 6,2 11,5 16,8l0 1c4,3 8,8 12,13 3,5 6,10 8,16zm81 129l0 -186 0 -3 3 0c5,1 10,1 15,2 5,0 10,1 14,1l2 0c9,-1 19,-2 28,-3l3 0 0 3 0 130c0,9 0,16 0,22 0,7 1,15 1,22 0,8 0,15 0,22 1,7 1,13 2,20l0 0c2,7 3,13 4,18 1,4 2,8 3,9l0 0c1,5 3,8 6,12 2,4 5,8 8,11l0 0c6,6 13,11 20,14 7,4 15,5 23,5 9,0 17,-1 24,-3 7,-2 13,-5 19,-9 5,-4 9,-9 14,-16 4,-7 8,-15 12,-25l0 0c1,-3 2,-8 3,-13 1,-5 1,-12 2,-19l0 0c1,-7 1,-16 1,-26 1,-10 1,-22 1,-35l0 -139 0 -3 3 0 5 1 0 0c1,0 3,0 3,1l0 0c1,0 2,0 3,0 1,0 3,0 4,0 3,0 6,0 9,-1l0 0 4 0 0 0c1,0 2,-1 3,-1l4 0 0 3 0 162c0,17 -1,32 -2,44 -1,13 -2,23 -4,31l0 0c-3,12 -8,23 -14,33 -6,10 -14,19 -24,27 -5,4 -11,8 -17,12 -6,3 -12,6 -19,8l0 0c-6,1 -13,3 -20,4 -7,1 -15,1 -22,1 -14,0 -27,-1 -39,-4 -12,-2 -23,-7 -33,-12 -12,-7 -22,-15 -29,-26 -8,-10 -13,-22 -17,-36 -1,-5 -2,-10 -3,-14l0 0c-1,-5 -1,-10 -2,-14l0 0c0,-5 -1,-9 -1,-14 0,-5 0,-10 0,-16zm6 -182l0 182c0,6 0,11 0,15 0,5 1,10 1,14l0 0c1,5 1,9 2,14l0 0c1,4 2,8 3,13 3,13 8,25 16,35 7,9 16,17 27,24 9,5 20,9 31,11 12,3 24,4 38,4 7,0 14,0 21,-1 7,-1 13,-2 19,-4l0 0c7,-2 12,-5 18,-8 6,-3 11,-6 16,-11l0 0c9,-7 17,-15 23,-25 6,-9 10,-20 13,-32l0 0c2,-7 3,-17 4,-29 1,-12 1,-27 1,-44l0 -158 -4 0 0 0c-3,1 -6,1 -9,1 -1,0 -3,0 -4,0 -2,0 -3,0 -4,0l0 0c-1,0 -2,-1 -3,-1l0 0 -1 0 0 135c0,13 0,24 -1,35 0,10 0,19 -1,27 0,7 -1,14 -2,19 -1,6 -2,10 -4,14l0 0c-3,10 -7,19 -12,26 -5,8 -10,13 -16,18l0 0c-5,5 -12,8 -20,10 -8,2 -16,3 -26,3 -9,0 -18,-1 -26,-5 -8,-3 -15,-9 -21,-16 -4,-4 -7,-7 -10,-12 -2,-4 -4,-8 -6,-12l0 0c-1,-3 -2,-6 -3,-11 -1,-5 -2,-11 -4,-18l0 0c-1,-7 -1,-14 -2,-21 0,-7 0,-14 -1,-22 0,-7 0,-15 0,-22 0,-9 0,-17 0,-22l0 -126c-8,0 -16,1 -24,2l-2 0 -1 0c-5,0 -10,-1 -15,-1 -4,-1 -7,-1 -11,-1zm305 309l0 -313 0 -3 3 0 45 0 2 0 1 1 11 13c55,59 109,118 179,195l0 -206 0 -3 3 0 6 1 0 0c1,0 3,0 4,1l0 0c1,0 2,0 3,0 1,0 3,0 5,0l18 -2 3 0 0 3 0 314 0 3 -3 0 -39 -1 -1 0 -1 -1c-12,-13 -25,-28 -39,-43 -12,-15 -25,-29 -38,-44l0 0c-11,-12 -22,-25 -35,-39 -13,-14 -26,-29 -40,-44l0 0 -45 -46 0 214 0 3 -3 0c-2,0 -4,-1 -5,-1 -2,0 -4,0 -5,0l0 0c-1,-1 -2,-1 -3,-1 -1,0 -3,0 -5,0l-18 2 -3 0 0 -3zm6 -310l0 306 15 -1 0 0c2,0 4,0 5,0 2,0 3,0 4,0l0 0c1,1 3,1 4,1l2 0 0 -218 5 -2 50 52 0 0c15,16 29,31 41,44 12,14 24,27 35,39l0 0c13,15 25,29 38,44 11,12 24,27 37,42l35 1 0 -307 -15 1 0 0c-2,0 -4,0 -5,0 -2,0 -3,0 -4,0l0 0c-1,0 -2,-1 -4,-1l0 0 -2 0 0 210 -5 2c-50,-55 -117,-128 -184,-201l-11 -12 -41 0z"/>
  </g>
 </g>
</svg>
