<?xml version="1.0" encoding="UTF-8"?>
<!DOCTYPE svg PUBLIC "-//W3C//DTD SVG 1.1//EN" "http://www.w3.org/Graphics/SVG/1.1/DTD/svg11.dtd">
<!-- Creator: CorelDRAW X7 -->
<svg xmlns="http://www.w3.org/2000/svg" xml:space="preserve" width="1.1811in" height="1.1811in" version="1.1" style="shape-rendering:geometricPrecision; text-rendering:geometricPrecision; image-rendering:optimizeQuality; fill-rule:evenodd; clip-rule:evenodd"
viewBox="0 0 1181 1181"
 xmlns:xlink="http://www.w3.org/1999/xlink">
 <defs>
  <style type="text/css">
   <![CDATA[
    .fil0 {fill:#348FE9}
   ]]>
  </style>
 </defs>
 <g id="Layer_x0020_1">
  <metadata id="CorelCorpID_0Corel-Layer"/>
  <path class="fil0" d="M171 107l253 0c29,-63 93,-107 167,-107 73,0 137,44 166,107l253 0c65,0 118,53 118,118l0 838c0,65 -53,118 -118,118l-839 0c-65,0 -118,-53 -118,-118l0 -838c0,-65 53,-118 118,-118zm420 10c36,0 66,30 66,66 0,37 -30,67 -66,67 -37,0 -67,-30 -67,-67 0,-36 30,-66 67,-66zm-278 508l164 162 391 -388 78 79 -430 426 -38 39 -39 -39 -203 -200 77 -79z"/>
 </g>
</svg>
