<?xml version="1.0" encoding="UTF-8"?>
<!DOCTYPE svg PUBLIC "-//W3C//DTD SVG 1.1//EN" "http://www.w3.org/Graphics/SVG/1.1/DTD/svg11.dtd">
<!-- Creator: CorelDRAW X7 -->
<svg xmlns="http://www.w3.org/2000/svg" xml:space="preserve" width="1.1811in" height="1.1811in" version="1.1" style="shape-rendering:geometricPrecision; text-rendering:geometricPrecision; image-rendering:optimizeQuality; fill-rule:evenodd; clip-rule:evenodd"
viewBox="0 0 1181 1181"
 xmlns:xlink="http://www.w3.org/1999/xlink">
 <defs>
  <style type="text/css">
   <![CDATA[
    .fil0 {fill:#348FE9}
   ]]>
  </style>
 </defs>
 <g id="Layer_x0020_1">
  <metadata id="CorelCorpID_0Corel-Layer"/>
  <path class="fil0" d="M266 447l425 0c22,0 41,18 41,40l0 0c0,23 -19,41 -41,41l-425 0c-22,0 -40,-18 -40,-41l0 0c0,-22 18,-40 40,-40zm316 434c37,26 74,53 112,79 -108,77 -147,50 -112,-79zm408 -580l111 79 -367 522 -111 -79 367 -522zm-634 -222l29 0c2,-20 12,-38 26,-52l0 0 0 0c16,-17 39,-27 64,-27 26,0 49,10 65,27l0 0c14,14 24,32 26,52l29 0c25,0 47,21 47,47l0 113c0,25 -22,47 -47,47l-239 0c-25,0 -47,-22 -47,-47l0 -113c0,-26 22,-47 47,-47zm62 0l115 0c-3,-11 -8,-21 -16,-29l0 0c-11,-10 -25,-17 -42,-17 -16,0 -30,7 -41,17l0 0c-8,8 -13,18 -16,29zm-291 72l142 0 0 104c0,52 42,94 94,94l228 0c52,0 94,-42 94,-94l0 -104 142 0c26,0 47,21 47,46l0 187 -173 246c-3,-1 -6,-1 -10,-1l-425 0c-22,0 -40,18 -40,40l0 0c0,22 18,40 40,40l379 0 -61 87c-2,3 -5,8 -10,14l-308 0c-22,0 -40,18 -40,41l0 0c0,22 18,40 40,40l265 0c-11,50 -18,114 27,145 51,36 120,-8 163,-38 11,-8 43,-57 52,-69l101 -145 0 350c0,26 -21,47 -47,47l-700 0c-26,0 -47,-21 -47,-47l0 -937c0,-25 21,-46 47,-46z"/>
 </g>
</svg>
