<?xml version="1.0" encoding="UTF-8"?>
<!DOCTYPE svg PUBLIC "-//W3C//DTD SVG 1.1//EN" "http://www.w3.org/Graphics/SVG/1.1/DTD/svg11.dtd">
<!-- Creator: CorelDRAW X7 -->
<svg xmlns="http://www.w3.org/2000/svg" xml:space="preserve" width="1.1811in" height="1.1811in" version="1.1" style="shape-rendering:geometricPrecision; text-rendering:geometricPrecision; image-rendering:optimizeQuality; fill-rule:evenodd; clip-rule:evenodd"
viewBox="0 0 1181 1181"
 xmlns:xlink="http://www.w3.org/1999/xlink">
 <defs>
  <style type="text/css">
   <![CDATA[
    .fil0 {fill:#348FE9}
   ]]>
  </style>
 </defs>
 <g id="Layer_x0020_1">
  <metadata id="CorelCorpID_0Corel-Layer"/>
  <path class="fil0" d="M313 468l364 0c18,0 35,15 35,34l0 0c0,20 -17,35 -35,35l-364 0c-19,0 -34,-15 -34,-35l0 0c0,-19 15,-34 34,-34zm270 371c32,22 64,45 96,68 -92,66 -126,42 -96,-68zm349 -496l95 67 -314 447 -95 -68 314 -446zm-542 -190l25 0c1,-17 10,-33 22,-45l0 0 0 0c14,-14 33,-23 55,-23 22,0 42,9 55,23l0 0c12,12 21,28 23,45l24 0c22,0 41,18 41,40l0 97c0,21 -19,40 -41,40l-204 0c-21,0 -40,-19 -40,-40l0 -97c0,-22 19,-40 40,-40l0 0zm53 0l98 0c-2,-10 -6,-18 -13,-25l0 0c-10,-8 -22,-14 -36,-14 -14,0 -26,6 -35,14l0 0c-7,7 -11,15 -14,25zm-249 62l121 0 0 88c0,45 36,81 81,81l195 0c44,0 80,-36 80,-81l0 -88 122 0c22,0 40,17 40,39l0 160 -148 210c-2,-1 -5,-1 -8,-1l-364 0c-19,0 -34,16 -34,35l0 0c0,19 15,34 34,34l324 0 -52 74c-2,3 -4,7 -9,12l-263 0c-19,0 -34,16 -34,35l0 0c0,19 15,35 34,35l227 0c-10,42 -16,97 23,124 43,31 102,-7 139,-33 10,-7 37,-49 45,-59l86 -124 0 300c0,22 -18,40 -40,40l-599 0c-22,0 -40,-18 -40,-40l0 -802c0,-22 18,-39 40,-39l0 0z"/>
 </g>
</svg>
