<?xml version="1.0" encoding="UTF-8"?>
<!DOCTYPE svg PUBLIC "-//W3C//DTD SVG 1.1//EN" "http://www.w3.org/Graphics/SVG/1.1/DTD/svg11.dtd">
<!-- Creator: CorelDRAW X7 -->
<svg xmlns="http://www.w3.org/2000/svg" xml:space="preserve" width="8.26772in" height="8.26666in" version="1.1" style="shape-rendering:geometricPrecision; text-rendering:geometricPrecision; image-rendering:optimizeQuality; fill-rule:evenodd; clip-rule:evenodd"
viewBox="0 0 8268 8267"
 xmlns:xlink="http://www.w3.org/1999/xlink">
 <defs>
  <style type="text/css">
   <![CDATA[
    .fil0 {fill:url(#id0)}
   ]]>
  </style>
  <linearGradient id="id0" gradientUnits="userSpaceOnUse" x1="6696.72" y1="204.197" x2="1571" y2="8062.46">
   <stop offset="0" style="stop-opacity:1; stop-color:#FFD800"/>
   <stop offset="1" style="stop-opacity:1; stop-color:#ED3237"/>
  </linearGradient>
 </defs>
 <g id="Layer_x0020_1">
  <metadata id="CorelCorpID_0Corel-Layer"/>
  <path class="fil0" d="M6335 3650c0,-262 -213,-475 -474,-475l-873 0c212,-238 351,-509 377,-752 17,-149 -29,-297 -126,-405 -88,-100 -208,-155 -339,-156 -2,0 -3,0 -5,0 -126,0 -245,49 -334,137 -90,89 -139,207 -140,334 -5,27 -53,122 -172,236 -98,92 -266,219 -514,300 -97,32 -186,90 -265,173 -41,44 -102,104 -178,164 -37,-19 -80,-31 -125,-31l-828 0c-148,0 -268,120 -268,268l0 2209c0,148 120,268 268,268l828 0c101,0 189,-56 234,-138l2114 0c224,0 406,-182 406,-406 0,-75 -21,-146 -56,-206 116,-71 194,-200 194,-346 0,-75 -20,-146 -56,-206 116,-72 194,-200 194,-347 0,-84 -26,-163 -70,-228 125,-85 208,-230 208,-393zm585 -1292c-39,-61 -119,-78 -179,-40 -61,39 -78,119 -40,179 367,575 530,1268 459,1950 -72,693 -383,1346 -876,1839 -543,543 -1264,859 -2030,890 -762,31 -1502,-222 -2083,-711 -55,-46 -136,-39 -182,16 -46,55 -39,136 15,182 597,502 1346,774 2125,774 45,0 90,-1 135,-3 832,-33 1614,-376 2203,-965 535,-535 873,-1244 950,-1995 77,-740 -100,-1492 -497,-2116zm-1016 -1016c-625,-398 -1376,-575 -2117,-498 -751,78 -1459,415 -1995,950 -588,589 -931,1371 -965,2203 -33,827 240,1629 771,2260 26,30 62,46 99,46 30,0 59,-10 83,-30 55,-46 62,-128 16,-183 -489,-581 -741,-1320 -710,-2082 31,-767 347,-1488 889,-2031 494,-493 1147,-804 1839,-876 683,-70 1375,93 1950,459 61,39 141,21 179,-39 39,-61 21,-141 -39,-179zm662 556c-32,-35 -65,-70 -99,-104 -34,-33 -69,-67 -104,-99 -52,-48 -134,-45 -183,8 -48,52 -45,134 8,183 33,29 65,60 96,91 31,32 62,64 92,96 25,28 60,42 95,42 31,0 63,-11 87,-34 53,-48 57,-130 8,-183zm1471 2235l222 -588c17,-43 9,-91 -20,-127l-393 -491 30 -628c2,-46 -20,-89 -59,-115l-525 -345 -166 -607c-13,-44 -47,-78 -91,-90l-607 -166 -345 -526c-25,-38 -69,-60 -115,-58l-628 29 -491 -393c-36,-29 -84,-36 -127,-20l-588 222 -589 -222c-42,-16 -91,-9 -126,20l-491 393 -629 -29c-46,-3 -89,20 -114,58l-345 526 -607 166c-44,12 -79,46 -91,90l-166 607 -526 346c-38,25 -60,68 -58,114l30 628 -394 491c-28,36 -36,84 -20,127l223 588 -223 589c-16,43 -8,91 20,126l394 491 -30 629c-2,46 20,89 58,114l526 346 166 606c12,44 47,79 91,91l607 166 345 526c25,38 69,60 114,58l629 -30 491 394c35,28 84,36 126,20l589 -223 588 223c15,5 31,8 46,8 29,0 58,-10 81,-28l491 -394 628 30c46,2 90,-20 115,-58l345 -526 607 -166c44,-12 79,-47 91,-91l166 -606 525 -346c39,-25 61,-68 59,-114l-30 -629 393 -491c29,-35 37,-83 20,-126l-222 -589zm-260 46l214 565 -378 472c-19,24 -29,55 -28,87l28 603 -504 332c-27,17 -46,44 -54,74l-160 583 -582 159c-31,9 -57,28 -74,54l-332 505 -604 -29c-31,-1 -62,9 -87,29l-471 378 -565 -214c-15,-6 -31,-8 -46,-8 -16,0 -31,2 -46,8l-565 214 -472 -378c-24,-20 -55,-30 -87,-29l-603 29 -332 -505c-17,-26 -43,-45 -74,-54l-583 -159 -159 -583c-8,-30 -27,-57 -54,-74l-505 -332 29 -603c1,-32 -9,-63 -29,-87l-377 -472 213 -565c11,-29 11,-62 0,-91l-213 -566 377 -471c20,-25 30,-56 29,-87l-29 -604 505 -331c27,-18 46,-44 54,-74l159 -583 583 -160c31,-8 57,-27 74,-53l332 -505 603 28c32,2 63,-8 87,-28l472 -378 565 214c30,11 62,11 92,0l565 -214 471 378c25,20 56,30 87,28l604 -28 332 505c17,26 43,45 74,53l582 160 160 583c8,30 27,56 54,74l504 331 -28 604c-1,31 9,62 28,87l378 471 -214 566c-11,29 -11,62 0,91zm-5024 928c-71,0 -130,59 -130,130 0,72 59,130 130,130 72,0 130,-58 130,-130 0,-71 -58,-130 -130,-130zm3108 -1241l-69 0c-72,0 -130,58 -130,129 0,72 58,130 130,130 80,0 146,66 146,146 0,81 -66,147 -146,147l-139 0c-71,0 -129,58 -129,130 0,71 58,129 129,129 81,0 147,66 147,147 0,81 -66,146 -147,146l-138 0c-71,0 -129,58 -129,130 0,71 58,129 129,129 81,0 147,66 147,147 0,81 -66,147 -147,147l-2080 0 0 -1252c0,-71 -58,-129 -130,-129 -71,0 -129,58 -129,129l0 1381c0,5 -4,9 -9,9l-828 0c-5,0 -9,-4 -9,-9l0 -2209c0,-5 4,-9 9,-9l828 0c5,0 9,4 9,9l0 276c0,72 58,130 129,130 72,0 130,-58 130,-130l0 -276c0,-6 -1,-13 -1,-19 97,-75 175,-151 225,-205 48,-51 100,-86 156,-104 305,-99 510,-258 628,-374 148,-146 237,-298 237,-406 0,-58 22,-111 63,-152 41,-41 96,-62 155,-62 72,0 120,38 148,69 47,53 70,129 62,204 -28,257 -234,575 -524,810 -43,35 -59,92 -41,144 19,52 68,86 122,86l1196 0c119,0 215,97 215,216 0,119 -96,216 -215,216z"/>
 </g>
</svg>
