<?xml version="1.0" encoding="UTF-8"?>
<!DOCTYPE svg PUBLIC "-//W3C//DTD SVG 1.1//EN" "http://www.w3.org/Graphics/SVG/1.1/DTD/svg11.dtd">
<!-- Creator: CorelDRAW X7 -->
<svg xmlns="http://www.w3.org/2000/svg" xml:space="preserve" width="8.26772in" height="8.26666in" version="1.1" style="shape-rendering:geometricPrecision; text-rendering:geometricPrecision; image-rendering:optimizeQuality; fill-rule:evenodd; clip-rule:evenodd"
viewBox="0 0 8268 8267"
 xmlns:xlink="http://www.w3.org/1999/xlink">
 <defs>
  <style type="text/css">
   <![CDATA[
    .fil0 {fill:url(#id0)}
   ]]>
  </style>
  <linearGradient id="id0" gradientUnits="userSpaceOnUse" x1="6126.78" y1="1077.97" x2="2140.93" y2="7188.69">
   <stop offset="0" style="stop-opacity:1; stop-color:#FFD800"/>
   <stop offset="1" style="stop-opacity:1; stop-color:#ED3237"/>
  </linearGradient>
 </defs>
 <g id="Layer_x0020_1">
  <metadata id="CorelCorpID_0Corel-Layer"/>
  <path class="fil0" d="M7689 3736l-214 -857c58,-12 102,-64 102,-126l0 -139c0,-299 -244,-543 -543,-543l-976 0 0 -285c0,-148 -120,-268 -267,-268l-4971 0c-148,0 -268,120 -268,268l0 2347c0,72 58,130 130,130 71,0 129,-58 129,-130l0 -2347c0,-5 4,-9 9,-9l4971 0c5,0 8,4 8,9l0 2347c0,72 58,130 130,130 71,0 129,-58 129,-130l0 -146 1527 0c1,0 1,0 1,0 0,0 0,0 0,0 188,0 348,123 402,293l-402 0c-72,0 -130,58 -130,130l0 276c0,223 182,405 406,405l147 0 0 570 -339 0c-111,-321 -416,-552 -775,-552 -358,0 -663,231 -774,552l-63 0 0 -975c0,-72 -58,-130 -129,-130 -72,0 -130,58 -130,130l0 975 -2685 0c-112,-321 -417,-552 -775,-552 -359,0 -664,231 -775,552l-744 0c-5,0 -9,-4 -9,-9l0 -285 561 0c72,0 130,-58 130,-129 0,-72 -58,-129 -130,-129l-1243 0c-71,0 -129,57 -129,129 0,71 58,129 129,129l423 0 0 285c0,148 120,268 268,268l699 0c0,3 0,6 0,8 0,452 368,820 820,820 452,0 820,-368 820,-820 0,-3 -1,-5 -1,-8l2918 0c0,3 0,6 0,8 0,452 367,820 819,820 453,0 820,-368 820,-820 0,-3 0,-5 0,-8l423 0c72,0 130,-58 130,-130l0 -1380c0,-341 -252,-625 -579,-674zm-3187 -937c-51,-50 -133,-50 -183,0l-1152 1151 -599 -599c-50,-50 -132,-50 -183,0 -50,51 -50,133 0,183l691 691c25,25 58,38 91,38 33,0 67,-13 92,-38l1243 -1243c50,-50 50,-132 0,-183zm-2439 1757l-1657 0c-72,0 -130,58 -130,130 0,71 58,129 130,129l1657 0c71,0 129,-58 129,-129 0,-72 -58,-130 -129,-130zm3314 553l-1934 0c-71,0 -129,58 -129,129 0,72 58,129 129,129l1934 0c71,0 129,-57 129,-129 0,-71 -58,-129 -129,-129zm1519 552c-148,0 -268,120 -268,267 0,148 120,268 268,268 147,0 267,-120 267,-268 0,-147 -120,-267 -267,-267zm-4557 0c-148,0 -268,120 -268,267 0,148 120,268 268,268 147,0 267,-120 267,-268 0,-147 -120,-267 -267,-267zm3719 -3331l976 0c157,0 284,127 284,284l0 9 -1260 0 0 -293zm0 1398l0 -846 1151 0 211 846 -1362 0zm-3719 2761c-310,0 -561,-251 -561,-561 0,-309 251,-561 561,-561 309,0 561,252 561,561 0,310 -252,561 -561,561zm4557 0c-310,0 -561,-251 -561,-561 0,-309 251,-561 561,-561 309,0 560,252 560,561 0,310 -251,561 -560,561zm1113 -1657l-147 0c-81,0 -147,-65 -147,-146l0 -147 294 0 0 293 0 0z"/>
 </g>
</svg>
