<?xml version="1.0" encoding="UTF-8"?>
<!DOCTYPE svg PUBLIC "-//W3C//DTD SVG 1.1//EN" "http://www.w3.org/Graphics/SVG/1.1/DTD/svg11.dtd">
<!-- Creator: CorelDRAW X7 -->
<svg xmlns="http://www.w3.org/2000/svg" xml:space="preserve" width="0.499992in" height="0.499992in" version="1.1" style="shape-rendering:geometricPrecision; text-rendering:geometricPrecision; image-rendering:optimizeQuality; fill-rule:evenodd; clip-rule:evenodd"
viewBox="0 0 500 500"
 xmlns:xlink="http://www.w3.org/1999/xlink">
 <defs>
  <style type="text/css">
   <![CDATA[
    .fil0 {fill:black}
   ]]>
  </style>
 </defs>
 <g id="Layer_x0020_1">
  <metadata id="CorelCorpID_0Corel-Layer"/>
  <path class="fil0" d="M5 333c-6,5 -5,10 -5,18 1,10 5,10 14,10l68 0c4,-1 35,-25 41,-30 23,-16 49,-12 80,-12 16,0 81,-2 90,2 10,4 17,19 9,31 -8,11 -20,9 -37,9 -10,0 -58,-3 -65,3 -5,4 -7,12 -3,18 5,10 26,7 39,7 26,0 126,1 138,-2 14,-3 51,-36 65,-48 5,-3 10,-7 19,-5 12,2 19,17 11,28 -3,6 -65,54 -76,62 -7,6 -17,16 -27,19 -12,3 -159,1 -184,1l-161 0c-9,0 -15,-1 -20,4 -1,8 -2,18 3,23 4,2 312,1 332,1 45,0 46,-3 80,-31 21,-17 41,-33 62,-49 10,-8 19,-16 21,-33 3,-18 -6,-35 -14,-42 -31,-25 -55,-6 -77,12 -12,9 -20,16 -30,24 -7,6 -7,8 -20,8 -10,0 -19,0 -29,0 1,-9 5,-12 4,-24 -1,-21 -17,-39 -39,-44 -11,-3 -92,-2 -109,-2 -49,0 -55,1 -87,24 -23,18 -18,18 -37,18 -17,0 -40,-1 -56,0zm231 -278c-21,2 -37,8 -45,30 -8,20 1,42 17,53 26,19 76,12 77,38 0,23 -27,18 -47,18 -4,0 -9,0 -13,-1 -11,-3 -11,-11 -21,-1 -8,8 -18,14 6,24 8,4 16,6 26,6 2,25 -5,28 17,28 8,0 11,0 11,-12 0,-5 0,-10 0,-16 26,-3 37,-10 46,-29 9,-22 -4,-45 -17,-54 -27,-18 -77,-13 -77,-37 -1,-23 26,-19 46,-19 5,0 11,1 15,2 13,5 11,11 25,-5 15,-16 -28,-24 -38,-25 -2,-24 7,-27 -17,-27 -15,0 -9,8 -11,27z"/>
 </g>
</svg>
