<?xml version="1.0" encoding="UTF-8"?>
<!DOCTYPE svg PUBLIC "-//W3C//DTD SVG 1.1//EN" "http://www.w3.org/Graphics/SVG/1.1/DTD/svg11.dtd">
<!-- Creator: CorelDRAW X7 -->
<svg xmlns="http://www.w3.org/2000/svg" xml:space="preserve" width="1.1811in" height="1.1811in" version="1.1" style="shape-rendering:geometricPrecision; text-rendering:geometricPrecision; image-rendering:optimizeQuality; fill-rule:evenodd; clip-rule:evenodd"
viewBox="0 0 1181 1181"
 xmlns:xlink="http://www.w3.org/1999/xlink">
 <defs>
  <style type="text/css">
   <![CDATA[
    .fil0 {fill:#348FE9}
   ]]>
  </style>
 </defs>
 <g id="Layer_x0020_1">
  <metadata id="CorelCorpID_0Corel-Layer"/>
  <path class="fil0" d="M122 35l869 0c68,0 123,55 123,122l0 70 -549 0c-68,0 -123,55 -123,122l0 483c0,68 55,123 123,123l549 0 0 69c0,67 -55,122 -123,122l-869 0c-67,0 -122,-55 -122,-122l0 -867c0,-67 55,-122 122,-122zm439 310l620 0 0 491 -620 0 0 -491zm252 150c53,0 96,43 96,96 0,52 -43,95 -96,95 -53,0 -96,-43 -96,-95 0,-53 43,-96 96,-96z"/>
 </g>
</svg>
