<?xml version="1.0" encoding="UTF-8"?>
<!DOCTYPE svg PUBLIC "-//W3C//DTD SVG 1.1//EN" "http://www.w3.org/Graphics/SVG/1.1/DTD/svg11.dtd">
<!-- Creator: CorelDRAW X7 -->
<svg xmlns="http://www.w3.org/2000/svg" xml:space="preserve" width="1.1811in" height="1.1811in" version="1.1" style="shape-rendering:geometricPrecision; text-rendering:geometricPrecision; image-rendering:optimizeQuality; fill-rule:evenodd; clip-rule:evenodd"
viewBox="0 0 1181 1181"
 xmlns:xlink="http://www.w3.org/1999/xlink">
 <defs>
  <style type="text/css">
   <![CDATA[
    .fil0 {fill:#348FE9}
    .fil1 {fill:#348FE9;fill-rule:nonzero}
   ]]>
  </style>
 </defs>
 <g id="Layer_x0020_1">
  <metadata id="CorelCorpID_0Corel-Layer"/>
  <g id="_1161886464">
   <path class="fil0" d="M84 500l97 0c-7,43 11,88 49,112 51,33 121,18 154,-33l50 -79 157 0 156 0 50 79c33,51 102,66 154,33 38,-24 56,-69 49,-112l97 0 -1 2c25,7 43,29 43,56 0,31 -26,57 -57,57l-15 0 -100 382c-11,47 -42,65 -85,67 -97,0 -194,0 -291,-1 -97,1 -194,1 -291,1 -44,-2 -75,-20 -86,-67l-100 -382 -14 0c-32,0 -58,-26 -58,-57 0,-27 18,-49 43,-56l-1 -2zm623 464c0,19 -16,34 -35,34 -20,0 -35,-15 -35,-34l0 -250c0,-19 15,-34 35,-34 19,0 35,15 35,34l0 250zm141 0c0,19 -15,34 -35,34 -19,0 -35,-15 -35,-34l0 -250c0,-19 16,-34 35,-34 20,0 35,15 35,34l0 250zm-445 0c0,19 -16,34 -35,34 -20,0 -35,-15 -35,-34l0 -250c0,-19 15,-34 35,-34 19,0 35,15 35,34l0 250zm141 0c0,19 -15,34 -35,34 -19,0 -34,-15 -34,-34l0 -250c0,-19 15,-34 34,-34 20,0 35,15 35,34l0 250z"/>
   <path class="fil1" d="M621 205c-17,-26 -9,-62 17,-79 27,-17 62,-9 79,17l222 345c17,26 9,62 -17,79 -27,17 -62,9 -79,-18l-222 -344z"/>
   <path class="fil1" d="M464 143c17,-26 52,-34 79,-17 26,17 34,53 17,79l-222 344c-17,27 -52,35 -79,18 -26,-17 -34,-53 -17,-79l222 -345z"/>
  </g>
 </g>
</svg>
