<?xml version="1.0" encoding="UTF-8"?>
<!DOCTYPE svg PUBLIC "-//W3C//DTD SVG 1.1//EN" "http://www.w3.org/Graphics/SVG/1.1/DTD/svg11.dtd">
<!-- Creator: CorelDRAW X7 -->
<svg xmlns="http://www.w3.org/2000/svg" xml:space="preserve" width="1.1811in" height="1.1811in" version="1.1" style="shape-rendering:geometricPrecision; text-rendering:geometricPrecision; image-rendering:optimizeQuality; fill-rule:evenodd; clip-rule:evenodd"
viewBox="0 0 1181 1181"
 xmlns:xlink="http://www.w3.org/1999/xlink">
 <defs>
  <style type="text/css">
   <![CDATA[
    .fil0 {fill:#348FE9}
   ]]>
  </style>
 </defs>
 <g id="Layer_x0020_1">
  <metadata id="CorelCorpID_0Corel-Layer"/>
  <path class="fil0" d="M599 246l435 488c34,38 30,98 -8,132l-144 128 -143 128c-39,34 -98,31 -133,-8l-434 -487 6 -122c46,11 94,9 140,-6 35,16 78,11 109,-16 42,-37 45,-101 8,-143 -37,-42 -101,-45 -143,-8 -20,18 -32,43 -33,69 -25,4 -51,0 -75,-9l7 -139c0,-8 0,-12 11,-22 11,-10 16,-9 24,-9l373 24zm162 549c17,1 29,15 28,31 -1,17 -15,29 -32,28 -16,-1 -28,-15 -27,-32 1,-16 15,-28 31,-27zm-61 -511l429 311c42,30 52,89 21,131l-43 60c-2,-31 -14,-61 -36,-86l-371 -416zm-294 -173c26,29 43,63 51,99l-59 -4c-7,-21 -19,-40 -34,-58 -62,-69 -169,-75 -238,-13 -70,62 -76,168 -14,238 62,69 169,75 238,13 16,-14 28,-30 37,-48 11,5 20,11 28,20 6,6 10,14 14,22 -12,17 -25,34 -42,48 -92,83 -234,75 -317,-18 -83,-93 -74,-235 18,-317 93,-83 235,-75 318,18zm127 500c17,1 29,15 28,32 -1,16 -15,28 -32,27 -16,-1 -28,-15 -27,-31 1,-17 15,-29 31,-28zm4 -55c47,3 82,44 79,90 -3,47 -44,82 -90,79 -47,-3 -83,-43 -79,-90 3,-47 43,-82 90,-79zm228 184c47,3 82,43 79,90 -3,47 -44,82 -90,79 -47,-3 -83,-44 -79,-90 3,-47 43,-83 90,-79zm-38 -175l46 3c7,0 9,6 5,13l-188 298c-4,7 -13,12 -20,11l-45 -3c-7,0 -10,-6 -5,-13l187 -298c4,-7 13,-12 20,-11z"/>
 </g>
</svg>
