<?xml version="1.0" encoding="UTF-8"?>
<!DOCTYPE svg PUBLIC "-//W3C//DTD SVG 1.1//EN" "http://www.w3.org/Graphics/SVG/1.1/DTD/svg11.dtd">
<!-- Creator: CorelDRAW X7 -->
<svg xmlns="http://www.w3.org/2000/svg" xml:space="preserve" width="1.9685in" height="0.629921in" version="1.1" style="shape-rendering:geometricPrecision; text-rendering:geometricPrecision; image-rendering:optimizeQuality; fill-rule:evenodd; clip-rule:evenodd"
viewBox="0 0 1969 630"
 xmlns:xlink="http://www.w3.org/1999/xlink">
 <defs>
  <style type="text/css">
   <![CDATA[
    .fil1 {fill:#ED3237}
    .fil0 {fill:green}
   ]]>
  </style>
 </defs>
 <g id="Layer_x0020_1">
  <metadata id="CorelCorpID_0Corel-Layer"/>
  <g id="_1067917824">
   <path class="fil0" d="M1209 622c0,2 0,3 -2,4 -1,1 -2,2 -4,2l-31 0c-1,0 -3,-1 -4,-2 -1,-1 -2,-2 -2,-4l0 -32c0,-2 1,-3 2,-4 1,-1 3,-2 4,-2l31 0c2,0 3,1 5,2 1,1 1,2 1,4l0 32zm117 -24c12,0 26,-2 41,-7 4,-1 7,1 7,5l0 18c0,2 -1,3 -2,5 -1,1 -3,2 -5,3 -11,5 -25,8 -41,8 -14,0 -26,-2 -37,-7 -11,-5 -20,-13 -26,-23 -6,-11 -9,-24 -9,-40l0 -26c0,-16 3,-29 9,-39 6,-11 15,-19 26,-24 11,-5 23,-7 37,-7 16,0 30,3 41,8 2,1 4,2 5,3 1,1 2,3 2,5l0 18c0,4 -3,6 -7,5 -7,-2 -13,-4 -19,-5 -6,-1 -12,-2 -20,-2 -22,0 -32,13 -32,38l0 26c0,14 3,24 8,29 6,6 14,9 22,9zm240 -39c0,13 -3,25 -9,36 -5,11 -14,20 -25,26 -12,6 -25,9 -42,9 -16,0 -29,-3 -41,-9 -11,-6 -20,-15 -26,-26 -5,-11 -8,-23 -8,-36l0 -24c0,-13 3,-26 8,-36 6,-11 15,-20 26,-26 12,-6 25,-9 41,-9 17,0 30,3 42,9 11,6 20,15 25,26 6,10 9,23 9,36l0 24zm-42 0l0 -24c0,-12 -3,-21 -8,-28 -6,-7 -15,-10 -26,-10 -11,0 -19,3 -25,10 -6,7 -8,16 -8,28l0 24c0,11 2,21 8,28 6,7 15,10 25,10 11,0 20,-3 26,-10 5,-7 8,-17 8,-28zm223 63c0,1 0,3 -2,4 -1,1 -2,2 -4,2l-29 0c-2,0 -4,-1 -5,-2 -1,-1 -2,-3 -2,-4l0 -95c0,-8 -1,-14 -2,-18 -2,-5 -5,-8 -9,-10 -5,-2 -11,-3 -19,-3 -6,0 -13,1 -21,3l0 123c0,1 0,3 -1,4 -2,1 -3,2 -5,2l-29 0c-2,0 -3,-1 -5,-2 -1,-1 -1,-3 -1,-4l0 -144c0,-2 2,-4 6,-5 8,-3 18,-5 29,-7 11,-1 21,-2 29,-2 21,0 38,4 49,11 8,-3 16,-6 26,-8 9,-2 18,-3 27,-3 20,0 35,5 46,15 10,10 15,26 15,48l0 95c0,1 -1,3 -2,4 -1,1 -3,2 -5,2l-29 0c-1,0 -3,-1 -4,-2 -1,-1 -2,-3 -2,-4l0 -95c0,-8 -1,-14 -2,-18 -2,-5 -5,-8 -8,-10 -4,-2 -10,-3 -16,-3 -9,0 -18,2 -28,6 2,7 3,16 3,25l0 95z"/>
   <path class="fil0" d="M435 294l0 -37c0,-19 -4,-34 -13,-45 -8,-11 -20,-16 -36,-16 -16,0 -28,5 -36,16 -8,11 -12,26 -12,45l0 37c0,19 4,34 12,45 9,11 21,16 36,16 16,0 28,-5 36,-16 9,-11 13,-26 13,-45zm60 0c0,21 -4,41 -13,58 -8,17 -20,31 -37,40 -16,10 -36,15 -59,15 -23,0 -42,-5 -59,-15 -16,-9 -29,-23 -37,-40 -8,-17 -12,-37 -12,-58l0 -37c0,-22 4,-41 12,-58 8,-18 21,-31 37,-41 17,-9 36,-14 59,-14 23,0 43,5 59,14 17,10 29,23 37,41 9,17 13,36 13,58l0 37z"/>
   <path class="fil0" d="M64 201l0 66c0,30 6,52 17,65 12,14 25,21 41,21 16,0 31,0 45,-1l0 -116c0,-3 1,-5 3,-7 1,-2 3,-3 6,-3l45 0c2,0 4,1 6,3 2,2 3,4 3,7l0 152c0,6 -3,10 -9,11 -7,2 -16,3 -25,4 -10,2 -21,2 -36,3 -14,1 -27,1 -38,1 -13,0 -27,-2 -41,-7 -14,-5 -27,-13 -39,-24 -13,-11 -23,-25 -31,-44 -7,-18 -11,-39 -11,-65l0 -65c0,-28 4,-51 12,-69 7,-19 18,-33 31,-44 13,-10 26,-17 41,-21 14,-4 30,-6 46,-6 14,0 26,1 38,4 12,3 22,6 31,10 9,4 16,7 21,10 6,4 10,8 10,12l0 31c0,7 -4,9 -12,7 -11,-5 -24,-9 -39,-14 -14,-4 -29,-6 -44,-6 -25,0 -43,6 -54,19 -12,13 -17,35 -17,66z"/>
   <path class="fil0" d="M174 289l-38 0c-3,0 -5,-1 -6,-2 -2,-2 -3,-4 -3,-7l0 -45c0,-2 1,-4 2,-6 2,-2 4,-3 7,-3l38 0 0 63z"/>
   <g>
    <polygon class="fil0" points="1755,408 1862,167 1748,167 1784,101 1969,101 1832,408 "/>
    <path class="fil0" d="M1569 408l16 -68 -286 0 9 -57c35,-29 159,-114 156,-162 -2,-19 -12,-25 -29,-26 -24,-1 -35,15 -42,55l-69 0c16,-80 50,-120 126,-120 61,0 95,47 81,101 -14,55 -59,97 -108,144l60 0 140 -245 112 0 -166 378zm31 -133l32 -137 -78 137 46 0z"/>
    <polygon class="fil1" points="1647,408 1582,408 1569,408 1735,30 1678,275 1749,275 1725,340 1663,340 "/>
   </g>
   <path class="fil1" d="M795 156c0,-2 1,-4 2,-6 2,-2 4,-3 7,-3l42 0c2,0 4,1 6,3 2,2 3,4 3,6l0 151c0,8 0,16 2,22 1,6 4,11 7,15 4,4 8,7 14,9 6,2 13,3 22,3 15,0 30,-2 45,-5l0 -195c0,-2 1,-4 2,-6 2,-2 4,-3 7,-3l42 0c2,0 4,1 6,3 2,2 3,4 3,6l0 228c0,4 -3,7 -9,9 -17,4 -33,8 -50,10 -17,2 -33,4 -48,4 -18,0 -33,-2 -46,-6 -13,-4 -23,-10 -32,-18 -9,-8 -15,-18 -19,-31 -4,-12 -6,-27 -6,-45l0 -151z"/>
   <path class="fil1" d="M691 293l0 -35c0,-21 -3,-37 -10,-48 -7,-11 -20,-17 -38,-17 -15,0 -29,1 -44,3l0 159c10,2 25,3 44,3 18,0 31,-6 38,-17 7,-12 10,-28 10,-48zm-186 -248c-2,-1 -2,-4 -3,-6 0,-3 1,-5 3,-6l30 -31c2,-1 4,-2 6,-2 3,0 5,1 7,3l48 49c2,1 3,3 3,6l0 89c16,-2 30,-3 44,-3 24,0 44,4 60,13 16,9 28,23 36,40 8,17 12,37 12,61l0 35c0,36 -9,64 -27,84 -18,20 -45,30 -81,30 -31,0 -61,-4 -92,-12 -3,-1 -6,-2 -7,-3 -2,-1 -3,-2 -4,-3 -1,-2 -1,-4 -1,-6l0 -304c-11,-11 -23,-22 -34,-34z"/>
   <path class="fil1" d="M1107 446l-1 0c14,12 25,28 32,45 5,-1 9,-2 13,-4 12,-5 21,-12 27,-22 7,-10 13,-24 18,-42l76 -266c0,0 0,-1 0,-2 0,-2 -1,-4 -2,-6 -2,-1 -4,-2 -6,-2l-46 0c-5,0 -8,2 -9,8l-49 195 -2 0 -2 0 -1 0c-2,0 -4,-3 -6,-10l-46 -185c0,-2 -1,-4 -3,-6 -2,-1 -3,-2 -6,-2l-46 0c-5,0 -8,2 -8,7 0,1 0,2 0,3l60 209c3,10 7,19 11,24 4,6 9,9 14,11 4,2 9,2 15,2l6 0 -3 14c-3,8 -5,14 -8,18 -3,4 -7,7 -12,9 -4,1 -10,2 -16,2zm-160 0l-154 0c15,13 26,30 34,48l86 0c7,-18 19,-35 34,-48z"/>
   <g>
    <path class="fil1" d="M713 509c16,0 29,13 29,29 0,16 -13,29 -29,29 -16,0 -29,-13 -29,-29 0,-16 13,-29 29,-29z"/>
    <path class="fil1" d="M713 446c51,0 92,41 92,92 0,51 -41,92 -92,92 -51,0 -92,-41 -92,-92 0,-51 41,-92 92,-92zm0 38c30,0 55,24 55,54 0,30 -25,55 -55,55 -30,0 -54,-25 -54,-55 0,-30 24,-54 54,-54z"/>
   </g>
   <g>
    <path class="fil1" d="M1026 509c16,0 29,13 29,29 0,16 -13,29 -29,29 -16,0 -28,-13 -28,-29 0,-16 12,-29 28,-29z"/>
    <path class="fil1" d="M1026 446c51,0 92,41 92,92 0,51 -41,92 -92,92 -50,0 -92,-41 -92,-92 0,-51 42,-92 92,-92zm0 38c30,0 55,24 55,54 0,30 -25,55 -55,55 -30,0 -54,-25 -54,-55 0,-30 24,-54 54,-54z"/>
   </g>
  </g>
 </g>
</svg>
