<?xml version="1.0" encoding="UTF-8"?>
<!DOCTYPE svg PUBLIC "-//W3C//DTD SVG 1.1//EN" "http://www.w3.org/Graphics/SVG/1.1/DTD/svg11.dtd">
<!-- Creator: CorelDRAW X7 -->
<svg xmlns="http://www.w3.org/2000/svg" xml:space="preserve" width="5.33335in" height="4.9922in" version="1.1" style="shape-rendering:geometricPrecision; text-rendering:geometricPrecision; image-rendering:optimizeQuality; fill-rule:evenodd; clip-rule:evenodd"
viewBox="0 0 5333 4992"
 xmlns:xlink="http://www.w3.org/1999/xlink">
 <defs>
  <style type="text/css">
   <![CDATA[
    .fil0 {fill:#DC3327}
   ]]>
  </style>
 </defs>
 <g id="Layer_x0020_1">
  <metadata id="CorelCorpID_0Corel-Layer"/>
  <path class="fil0" d="M2957 0c-804,0 -1515,401 -1945,1013 89,58 176,138 260,240 321,-480 840,-817 1441,-889l244 413 244 -413c923,111 1657,845 1768,1768l-413 244 413 244c-74,618 -428,1149 -929,1468 32,73 50,147 53,224 2,56 -3,109 -15,159 746,-401 1255,-1189 1255,-2094 0,-1311 -1066,-2377 -2376,-2377zm606 3914c-548,-440 -701,-224 -949,25 -174,173 -613,-189 -992,-569 -379,-379 -742,-818 -568,-991 248,-249 465,-402 24,-950 -440,-548 -734,-127 -974,114 -278,277 -15,1313 1009,2337 1023,1023 2059,1286 2337,1009 240,-241 661,-535 113,-975zm-1668 -1166c0,-487 570,-573 570,-763 0,-93 -74,-131 -142,-131 -126,0 -196,140 -196,140l-240 -161c0,0 122,-284 465,-284 216,0 450,124 450,404 0,412 -531,491 -540,661l561 0 0 277 -913 0c-10,-52 -15,-98 -15,-143zm1063 -372l509 -805 395 0 0 733 156 0 0 267 -156 0 0 320 -320 0 0 -320 -584 0 0 -195 0 0zm584 -72l0 -295c0,-72 12,-148 12,-148l-4 0c0,0 -28,81 -65,137l-199 302 0 4 256 0 0 0z"/>
 </g>
</svg>
