<?xml version="1.0" encoding="UTF-8"?>
<!DOCTYPE svg PUBLIC "-//W3C//DTD SVG 1.1//EN" "http://www.w3.org/Graphics/SVG/1.1/DTD/svg11.dtd">
<!-- Creator: CorelDRAW X7 -->
<svg xmlns="http://www.w3.org/2000/svg" xml:space="preserve" width="2.69646in" height="2.90184in" version="1.1" style="shape-rendering:geometricPrecision; text-rendering:geometricPrecision; image-rendering:optimizeQuality; fill-rule:evenodd; clip-rule:evenodd"
viewBox="0 0 2696 2902"
 xmlns:xlink="http://www.w3.org/1999/xlink">
 <defs>
  <style type="text/css">
   <![CDATA[
    .str1 {stroke:#373435;stroke-width:3}
    .str0 {stroke:#373435;stroke-width:3}
    .fil0 {fill:#373435}
    .fil2 {fill:#ED3237}
    .fil1 {fill:#070BC4}
    .fil3 {fill:#373435;fill-rule:nonzero}
    .fil4 {fill:#ED3237;fill-rule:nonzero}
   ]]>
  </style>
 </defs>
 <g id="Layer_x0020_1">
  <metadata id="CorelCorpID_0Corel-Layer"/>
  <g id="_974041520">
   <g>
    <path class="fil0 str0" d="M841 922l83 0 13 0 104 0 0 68 -104 0 0 29 104 0 0 68 -104 0 0 102 -96 0 0 -267zm1268 0l92 0 0 267 -105 0 -52 -96 0 96 -91 0 0 -267 101 0 55 98 0 -98zm-444 0l95 0 0 198 43 0 0 -198 95 0 0 228 -49 39c-45,0 -90,0 -134,0l-50 -39 0 -228zm-195 173l0 25 48 0 0 -32c-31,0 -62,0 -94,0l-49 -40 0 -87 49 -39c46,0 92,0 138,0l50 39 0 51 -94 0 0 -21 -48 0 0 27c31,0 62,0 92,0l50 40 0 92 -50 39c-46,0 -92,0 -138,0l-49 -39 0 -55 95 0zm-381 -173l95 0 0 198 43 0 0 -198 95 0 0 228 -49 39c-45,0 -90,0 -134,0l-50 -39 0 -228z"/>
    <g>
     <rect class="fil1 str1" x="922" y="491" width="243" height="255"/>
     <rect class="fil1 str1" transform="matrix(0.149497 -0.149497 0.147975 0.147975 569.824 737.034)" width="1149" height="1219"/>
     <rect class="fil1 str1" transform="matrix(1.476E-007 -0.211421 0.209269 1.46097E-007 495.122 1160.37)" width="1149" height="1219"/>
     <rect class="fil1 str1" transform="matrix(-0.149497 -0.149497 0.147976 -0.147975 741.641 1512.53)" width="1149" height="1219"/>
     <rect class="fil1 str1" x="922" y="1332" width="243" height="255"/>
     <rect class="fil1 str1" transform="matrix(-0.149497 0.149497 -0.147975 -0.147976 1517.14 1340.71)" width="1149" height="1219"/>
     <rect class="fil1 str1" transform="matrix(0.149497 0.149497 -0.147976 0.147975 1345.32 565.216)" width="1149" height="1219"/>
    </g>
    <path class="fil2 str0" d="M825 912l83 0 13 0 104 0 0 68 -104 0 0 29 104 0 0 68 -104 0 0 102 -96 0 0 -267zm1268 0l92 0 0 267 -105 0 -52 -96 0 96 -91 0 0 -267 101 0 55 98 0 -98zm-444 0l95 0 0 198 43 0 0 -198 95 0 0 228 -49 39c-45,0 -90,0 -134,0l-50 -39 0 -228zm-195 173l0 25 49 0 0 -32c-32,0 -63,0 -95,0l-49 -39 0 -88 49 -39c46,0 92,0 138,0l50 39 0 51 -93 0 0 -21 -49 0 0 28c31,0 62,0 92,0l50 39 0 92 -50 39c-46,0 -92,0 -138,0l-49 -39 0 -55 95 0zm-381 -173l95 0 0 198 43 0 0 -198 95 0 0 228 -49 39c-45,0 -90,0 -134,0l-50 -39 0 -228z"/>
   </g>
   <g>
    <path class="fil3" d="M226 1892l-72 0c0,-6 -2,-12 -6,-16 -6,-6 -15,-9 -27,-9 -15,0 -25,5 -31,13 -4,7 -7,18 -7,32 0,17 2,28 6,33 6,8 17,12 34,12 13,0 23,-2 29,-7 5,-4 7,-11 7,-20l67 3c0,15 -9,27 -28,36 -19,9 -45,13 -78,13 -43,0 -75,-7 -95,-22 -17,-11 -25,-27 -25,-48 0,-19 8,-35 24,-47 21,-15 53,-23 96,-23 35,0 62,5 80,15 18,8 26,20 26,35zm14 20c0,-19 8,-35 25,-48 21,-14 52,-22 94,-22 42,0 73,8 94,22 17,12 25,29 25,48 0,20 -8,36 -25,48 -20,15 -51,22 -94,22 -41,0 -73,-7 -93,-22 -18,-12 -26,-28 -26,-48zm83 0c0,17 2,28 5,33 4,8 15,12 31,12 16,0 27,-4 31,-12 3,-5 5,-16 5,-33 0,-16 -2,-27 -5,-32 -4,-9 -15,-13 -31,-13 -16,0 -26,4 -31,13 -3,5 -5,16 -5,32zm10 -107l54 0 49 27 -49 0 -28 -15 -26 15 -49 0 49 -27zm189 175l0 -135 64 0 89 72 1 -72 62 0 0 135 -62 0 -91 -76 -1 76 -62 0zm465 -67l0 69 -32 0 -15 -13c-9,4 -19,8 -31,10 -12,2 -24,3 -36,3 -39,0 -67,-6 -87,-18 -17,-11 -26,-28 -26,-48 0,-21 8,-38 24,-50 20,-16 52,-24 96,-24 36,0 64,5 83,14 18,9 27,21 27,37l-75 0c0,-9 -2,-15 -6,-19 -5,-4 -14,-7 -28,-7 -15,0 -25,5 -31,13 -4,7 -7,18 -7,32 0,17 3,28 7,33 5,8 16,12 33,12 12,0 21,-2 28,-7 6,-5 9,-9 9,-15l-39 0 0 -22 106 0zm129 -42l0 -26 216 0 0 26 -69 0 0 109 -77 0 0 -109 -70 0zm307 109l0 -53 -77 -82 81 0 41 53 48 -53 69 0 -85 80 0 55 -77 0zm287 -109l0 -26 216 0 0 26 -69 0 0 109 -77 0 0 -109 -70 0zm254 109l0 -135 64 0 89 72 1 -72 62 0 0 135 -62 0 -91 -76 -1 76 -62 0zm254 0l0 -135 77 0 0 52 61 0 0 -52 77 0 0 135 -77 0 0 -56 -61 0 0 56 -77 0zm263 0l0 -135 77 0 0 52 61 0 0 -52 77 0 0 135 -77 0 0 -56 -61 0 0 56 -77 0z"/>
    <path class="fil4" d="M457 2111l0 253c0,6 1,10 5,13 2,1 3,2 5,2 1,1 7,2 15,3 11,2 17,6 17,12 0,4 -3,7 -9,9 -4,2 -11,3 -21,3l-12 0 -152 0 -9 0c-8,0 -14,-1 -19,-3 -4,-2 -6,-5 -6,-9 0,-6 4,-9 13,-11 8,-2 12,-3 14,-3 1,-1 2,-1 3,-3 3,-2 5,-6 5,-11l0 -216c0,-5 -2,-8 -5,-11 -1,-1 -2,-2 -3,-2 -2,-1 -6,-2 -14,-3 -9,-2 -13,-6 -13,-12 0,-3 2,-6 6,-8 5,-2 11,-3 19,-3l9 0 152 0zm30 0l137 0 0 75c0,5 -2,9 -4,11 -3,2 -8,3 -14,3 -4,0 -8,-1 -10,-2 -3,-2 -5,-4 -7,-8 -3,-7 -8,-13 -13,-19 -6,-6 -12,-11 -19,-15 -9,-6 -19,-10 -30,-14 -11,-3 -25,-5 -40,-6l0 -25zm-2 157l0 -25c13,-4 23,-8 29,-13 7,-5 11,-11 14,-19 2,-6 4,-9 7,-12 3,-2 7,-3 13,-3 7,0 12,2 15,6 1,2 2,6 2,13l0 82c0,6 -1,11 -3,14 -3,2 -7,4 -13,4 -6,0 -10,-1 -13,-3 -3,-2 -5,-6 -7,-10 -4,-10 -9,-18 -17,-23 -7,-6 -16,-9 -27,-11zm209 51l0 -169c0,-5 -1,-8 -4,-11 -1,-1 -2,-2 -4,-2 -1,-1 -5,-2 -13,-3 -9,-2 -13,-6 -13,-12 0,-3 2,-6 6,-8 5,-2 11,-3 19,-3l9 0 152 0 9 0 12 1c4,1 7,2 10,4 2,2 3,4 3,6 0,6 -4,10 -13,12 -8,1 -12,2 -13,3 -2,0 -3,1 -4,2 -3,3 -4,6 -4,11l0 181c0,12 0,21 1,26 1,5 3,9 6,13 3,3 7,6 10,8 4,1 11,3 21,5l0 28 -7 0c-30,0 -54,-1 -74,-5 -23,-4 -43,-9 -60,-17 -17,-8 -30,-16 -37,-26 -8,-10 -12,-24 -12,-44zm221 92l0 -28c23,-2 42,-8 57,-18 17,-11 26,-27 26,-49l0 -140c0,-20 -12,-34 -36,-42 -7,-2 -11,-4 -13,-5 -3,-2 -4,-4 -4,-8 0,-3 3,-6 7,-8 4,-1 11,-2 21,-2l83 0c7,0 12,0 14,0 3,0 5,1 7,2 6,2 9,5 9,9 0,3 -2,6 -5,8 -1,0 -6,2 -15,6 -10,3 -18,8 -23,15 -6,8 -9,16 -9,25l0 141c0,24 -8,44 -25,59 -12,12 -30,21 -53,28 -11,3 -25,6 -41,7zm379 -306l0 25c-14,2 -24,6 -32,11 -7,5 -11,12 -11,19 0,7 3,14 9,19 6,5 16,11 30,15 10,4 31,10 65,19 20,6 36,11 47,16 12,4 22,10 32,17 27,17 40,39 40,63 0,19 -7,36 -21,51 -15,16 -35,28 -60,36 -14,5 -29,9 -45,11 -16,3 -31,4 -46,4l0 -24c20,-3 34,-7 43,-13 9,-5 13,-13 13,-22 0,-9 -7,-18 -20,-25 -9,-5 -26,-11 -52,-18 -28,-8 -47,-13 -57,-17 -11,-3 -20,-7 -30,-11 -43,-19 -64,-45 -64,-77 0,-17 5,-32 16,-46 11,-14 26,-25 45,-33 26,-12 59,-19 98,-20zm27 25l0 -24c14,1 26,2 36,4 10,1 24,4 42,9 5,2 8,2 11,2 5,0 8,-1 10,-3l7 -6c4,-3 8,-5 14,-5 6,0 10,2 13,4 3,3 4,8 4,14l0 71c0,4 -1,8 -5,10 -4,3 -9,4 -15,4 -4,0 -8,-1 -12,-3 -2,-1 -4,-2 -5,-4 -2,-1 -3,-4 -4,-8 -2,-7 -7,-14 -13,-22 -6,-7 -13,-14 -21,-20 -17,-12 -37,-19 -62,-23zm-44 257l0 24c-19,0 -39,-3 -62,-10 -8,-2 -14,-4 -17,-5 -3,0 -7,-1 -10,-1 -4,0 -7,1 -10,2 -2,1 -6,3 -11,7 -4,3 -8,5 -13,5 -13,0 -19,-7 -19,-19l0 -79c0,-4 2,-7 6,-10 3,-3 8,-4 13,-4 5,0 9,0 12,2 3,2 5,6 7,11 5,12 13,24 23,34 10,11 21,20 34,28 14,8 29,13 47,15zm280 -68l0 -169c0,-5 -2,-8 -4,-11 -2,-1 -3,-2 -4,-2 -2,-1 -6,-2 -13,-3 -10,-2 -14,-6 -14,-12 0,-3 2,-6 7,-8 4,-2 10,-3 18,-3l9 0 152 0 9 0 12 1c4,1 7,2 10,4 2,2 4,4 4,6 0,6 -5,10 -14,12 -8,1 -12,2 -13,3 -1,0 -3,1 -4,2 -3,3 -4,6 -4,11l0 181c0,12 0,21 1,26 1,5 3,9 7,13 3,3 6,6 9,8 4,1 11,3 21,5l0 28 -7 0c-30,0 -54,-1 -74,-5 -23,-4 -43,-9 -60,-17 -17,-8 -30,-16 -37,-26 -8,-10 -11,-24 -11,-44zm221 92l0 -28c22,-2 41,-8 56,-18 18,-11 26,-27 26,-49l0 -140c0,-20 -12,-34 -36,-42 -7,-2 -11,-4 -13,-5 -2,-2 -4,-4 -4,-8 0,-3 3,-6 7,-8 4,-1 11,-2 21,-2l83 0c8,0 12,0 15,0 2,0 4,1 7,2 5,2 8,5 8,9 0,3 -1,6 -5,8 -1,0 -6,2 -15,6 -10,3 -17,8 -23,15 -6,8 -9,16 -9,25l0 141c0,24 -8,44 -25,59 -12,12 -30,21 -53,28 -11,3 -24,6 -40,7zm414 -300l181 199 0 96 -93 0 -231 -253c-5,-5 -9,-9 -12,-11 -3,-3 -7,-4 -12,-5l-13 -3c-4,-1 -6,-2 -8,-4 -2,-2 -3,-4 -3,-6 0,-3 1,-5 3,-7 2,-2 4,-4 8,-5 4,-1 14,-1 31,-1l149 0zm-142 76l36 38 0 115c0,10 2,19 8,25 5,7 13,12 25,16l10 4c6,2 9,5 9,10 0,3 -2,6 -6,8 -4,2 -11,3 -23,3l-78 0c-21,0 -31,-4 -31,-12 0,-2 1,-4 3,-6 2,-1 7,-3 14,-6 22,-8 33,-21 33,-42l0 -153zm323 89l-36 -39 0 -60c0,-12 -3,-21 -8,-27 -6,-7 -16,-12 -30,-17 -5,-1 -8,-3 -10,-4 -1,-2 -2,-4 -2,-7 0,-4 2,-7 6,-8 4,-2 10,-3 19,-3l85 0c12,0 19,1 23,3 4,3 6,5 6,9 0,3 -1,5 -4,6 -2,2 -7,4 -15,7 -12,3 -21,9 -27,17 -5,6 -7,14 -7,24l0 99z"/>
   </g>
  </g>
 </g>
</svg>
