<?xml version="1.0" encoding="UTF-8"?>
<!DOCTYPE svg PUBLIC "-//W3C//DTD SVG 1.1//EN" "http://www.w3.org/Graphics/SVG/1.1/DTD/svg11.dtd">
<!-- Creator: CorelDRAW X7 -->
<svg xmlns="http://www.w3.org/2000/svg" xml:space="preserve" width="1.1811in" height="1.1811in" version="1.1" style="shape-rendering:geometricPrecision; text-rendering:geometricPrecision; image-rendering:optimizeQuality; fill-rule:evenodd; clip-rule:evenodd"
viewBox="0 0 1181 1181"
 xmlns:xlink="http://www.w3.org/1999/xlink">
 <defs>
  <style type="text/css">
   <![CDATA[
    .fil0 {fill:#348FE9}
   ]]>
  </style>
 </defs>
 <g id="Layer_x0020_1">
  <metadata id="CorelCorpID_0Corel-Layer"/>
  <path class="fil0" d="M274 225l191 0c22,-47 70,-81 126,-81 55,0 103,34 125,81l192 0c49,0 89,40 89,89l0 634c0,49 -40,89 -89,89l-634 0c-50,0 -90,-40 -90,-89l0 -634c0,-49 40,-89 90,-89zm153 399l97 96 230 -229 46 46 -253 252 -23 23 -23 -23 -120 -118 46 -47 0 0zm164 -391c27,0 50,22 50,50 0,28 -23,50 -50,50 -28,0 -51,-22 -51,-50 0,-28 23,-50 51,-50z"/>
 </g>
</svg>
