<?xml version="1.0" encoding="UTF-8"?>
<!DOCTYPE svg PUBLIC "-//W3C//DTD SVG 1.1//EN" "http://www.w3.org/Graphics/SVG/1.1/DTD/svg11.dtd">
<!-- Creator: CorelDRAW X7 -->
<svg xmlns="http://www.w3.org/2000/svg" xml:space="preserve" width="8.26772in" height="8.26666in" version="1.1" style="shape-rendering:geometricPrecision; text-rendering:geometricPrecision; image-rendering:optimizeQuality; fill-rule:evenodd; clip-rule:evenodd"
viewBox="0 0 8268 8267"
 xmlns:xlink="http://www.w3.org/1999/xlink">
 <defs>
  <style type="text/css">
   <![CDATA[
    .fil0 {fill:url(#id0)}
   ]]>
  </style>
  <linearGradient id="id0" gradientUnits="userSpaceOnUse" x1="6475.94" y1="542.677" x2="1791.78" y2="7723.98">
   <stop offset="0" style="stop-opacity:1; stop-color:#FFD800"/>
   <stop offset="1" style="stop-opacity:1; stop-color:#ED3237"/>
  </linearGradient>
 </defs>
 <g id="Layer_x0020_1">
  <metadata id="CorelCorpID_0Corel-Layer"/>
  <path class="fil0" d="M92 7447c-9,79 -20,204 17,267 20,1 42,2 60,2 64,2 128,3 192,4 209,4 419,5 629,6 611,4 1222,4 1832,4 598,0 1195,-1 1793,-2 315,-1 631,-2 946,-2 142,0 290,0 431,-15 91,-9 179,-26 265,-61 86,-36 164,-89 238,-145 116,-87 228,-182 340,-274 338,-277 680,-548 1027,-812 176,-141 290,-255 318,-493l0 -2 1 -2c20,-126 2,-256 -44,-374 -33,-87 -91,-186 -161,-248 -162,-130 -344,-211 -554,-169 -228,45 -443,224 -620,368l-1 1 -1 1c-169,127 -329,263 -494,395 -39,34 -79,76 -124,103 -76,46 -171,48 -257,48 -160,0 -320,0 -480,0l-88 0 10 -88c7,-58 21,-108 39,-164 26,-79 34,-133 27,-218l0 -1 0 -1c-16,-328 -272,-584 -584,-655l-2 -1 -2 0c-31,-9 -78,-12 -110,-14 -71,-5 -141,-8 -212,-10 -191,-7 -383,-8 -574,-9 -296,-1 -591,2 -886,2 -177,0 -358,-1 -533,12 -114,8 -226,23 -335,61 -186,63 -366,195 -525,309 -80,62 -157,128 -236,192 -46,37 -94,75 -151,96 -80,30 -187,25 -272,25 -144,0 -289,-3 -433,-5 -153,-3 -308,-5 -461,4 -13,13 -24,29 -29,48 -14,44 -8,120 -8,168 2,20 9,68 24,79 20,14 105,12 129,12l1110 0c10,-5 23,-14 31,-19 27,-17 53,-35 79,-54 72,-50 142,-102 211,-154 66,-50 132,-100 197,-151 42,-33 84,-66 125,-100l3 -2 3 -2c109,-76 228,-130 357,-165 159,-43 324,-54 488,-55 174,-1 349,7 523,7 98,0 197,-2 295,-3 143,-3 286,-4 429,-5 161,0 324,0 485,7 79,4 239,9 311,40 109,45 192,144 230,254 44,127 29,263 -46,376l-1 1 -1 1c-41,57 -91,101 -154,132 -77,37 -161,48 -245,51 -92,3 -185,-1 -277,-1 -70,0 -142,-4 -212,-6 -106,-4 -212,-6 -318,-7 -108,0 -219,1 -327,11 -32,3 -141,14 -167,33l-1 0 -1 1c-56,45 -74,132 -33,193l2 4 3 4c2,5 5,10 9,14 55,67 242,66 321,65 81,-1 163,-7 244,-7 367,0 734,4 1101,3 250,-1 500,-2 751,-8 90,-2 182,-5 272,-11 41,-2 101,-4 141,-14l1 -1 1 0c137,-29 445,-277 558,-368 164,-133 323,-271 483,-409l5 -4 6 -4c48,-29 91,-58 145,-78 74,-28 148,-31 225,-14 70,12 134,45 185,94 134,129 156,336 48,489 -18,30 -54,64 -79,87 -47,45 -96,87 -146,129 -137,116 -278,229 -418,341 -128,102 -257,202 -386,302 -81,62 -163,126 -246,186 -139,120 -293,274 -473,328l-2 1 -1 0c-25,6 -54,9 -80,11 -40,3 -80,5 -120,7 -120,5 -240,7 -360,9 -335,4 -671,3 -1006,2 -306,-1 -613,-3 -920,-6 -193,-1 -385,-4 -578,-4l-2664 0c-62,0 -172,-9 -229,12 -10,4 -19,9 -28,15zm4697 -6036c28,-5 132,-123 150,-145l1 -1 1 -1c12,-12 34,-38 30,-58 -5,-27 -52,-59 -74,-72 -60,-36 -133,-62 -200,-82 -104,-31 -227,-58 -335,-69l-65 -6 -6 -66c-7,-89 -6,-173 -1,-262 1,-16 5,-79 0,-96 -30,-17 -172,-16 -202,-16 -13,0 -77,1 -87,14 -10,13 -9,79 -9,96 1,90 2,175 -7,266l-7 64 -64 6c-326,31 -559,117 -678,445l-1 1 0 1c-113,283 6,614 253,783l1 1 0 0c125,91 287,143 434,181 155,40 315,68 468,114 130,40 275,99 351,218 34,54 51,114 54,177l0 1 0 2c0,101 -28,197 -103,267 -134,126 -372,120 -543,115 -70,-2 -141,-6 -211,-6 -76,0 -159,0 -234,-18l-1 -1 0 0c-56,-15 -100,-37 -148,-68 -7,-4 -40,-26 -48,-26 -17,0 -65,47 -75,57 -22,22 -125,113 -127,142 -1,8 19,26 24,30 46,40 121,74 176,97l3 1 2 1c129,64 251,91 395,91l73 0 6 73c7,95 7,185 7,280 0,15 -1,81 8,93 19,18 161,18 188,18 14,0 76,0 89,-6 13,-17 14,-95 14,-114 0,-89 0,-177 0,-265l0 -70 70 -8c172,-20 370,-55 508,-169 85,-71 143,-166 190,-265 61,-152 53,-315 -6,-467 -48,-124 -138,-253 -248,-329 -124,-83 -279,-133 -423,-171 -163,-44 -331,-75 -492,-125 -132,-40 -285,-102 -355,-229 -26,-46 -38,-98 -38,-151 -4,-101 19,-198 93,-272 130,-130 369,-129 541,-127 69,2 137,4 206,4 86,0 183,15 267,36l5 1 4 2c47,18 88,39 132,63 7,4 35,20 44,20z"/>
 </g>
</svg>
