<?xml version="1.0" encoding="UTF-8"?>
<!DOCTYPE svg PUBLIC "-//W3C//DTD SVG 1.1//EN" "http://www.w3.org/Graphics/SVG/1.1/DTD/svg11.dtd">
<!-- Creator: CorelDRAW X7 -->
<svg xmlns="http://www.w3.org/2000/svg" xml:space="preserve" width="8.26772in" height="8.26666in" version="1.1" style="shape-rendering:geometricPrecision; text-rendering:geometricPrecision; image-rendering:optimizeQuality; fill-rule:evenodd; clip-rule:evenodd"
viewBox="0 0 8268 8267"
 xmlns:xlink="http://www.w3.org/1999/xlink">
 <defs>
  <style type="text/css">
   <![CDATA[
    .fil0 {fill:url(#id0)}
   ]]>
  </style>
  <linearGradient id="id0" gradientUnits="userSpaceOnUse" x1="6240.81" y1="903.165" x2="2026.91" y2="7363.5">
   <stop offset="0" style="stop-opacity:1; stop-color:#FFD800"/>
   <stop offset="1" style="stop-opacity:1; stop-color:#ED3237"/>
  </linearGradient>
 </defs>
 <g id="Layer_x0020_1">
  <metadata id="CorelCorpID_0Corel-Layer"/>
  <path class="fil0" d="M7199 4361c-361,-439 -808,-797 -1312,-1061 -724,-379 -1531,-550 -2344,-580l-76 -3 0 -1425c0,-49 -28,-96 -73,-117 -45,-20 -98,-15 -137,17l-3131 2582c-29,23 -47,60 -47,98 0,38 16,74 46,98l3130 2591c39,32 91,40 136,18l1 -1c46,-21 73,-66 73,-116l0 -1423 79 0c774,3 1543,48 2284,289 926,301 1639,860 2121,1711 23,40 66,64 112,64 10,0 21,0 30,-3l2 0 1 -1c56,-14 95,-65 95,-123 1,-409 -88,-842 -220,-1228 -172,-503 -432,-976 -770,-1387zm485 1859c-584,-668 -1334,-1058 -2190,-1256 -376,-87 -760,-135 -1145,-159 -337,-21 -674,-23 -1011,-23 -35,0 -68,14 -92,38 -24,25 -38,57 -38,92l0 1278 -2797 -2317 2799 -2309 0 1278c0,70 56,129 127,129 1183,12 2351,308 3250,1112 610,545 1033,1275 1233,2065l80 318 -216 -246z"/>
 </g>
</svg>
