<?xml version="1.0" encoding="UTF-8"?>
<!DOCTYPE svg PUBLIC "-//W3C//DTD SVG 1.1//EN" "http://www.w3.org/Graphics/SVG/1.1/DTD/svg11.dtd">
<!-- Creator: CorelDRAW X7 -->
<svg xmlns="http://www.w3.org/2000/svg" xml:space="preserve" width="1.1811in" height="1.1811in" version="1.1" style="shape-rendering:geometricPrecision; text-rendering:geometricPrecision; image-rendering:optimizeQuality; fill-rule:evenodd; clip-rule:evenodd"
viewBox="0 0 1181 1181"
 xmlns:xlink="http://www.w3.org/1999/xlink">
 <defs>
  <style type="text/css">
   <![CDATA[
    .fil0 {fill:#348FE9}
   ]]>
  </style>
 </defs>
 <g id="Layer_x0020_1">
  <metadata id="CorelCorpID_0Corel-Layer"/>
  <path class="fil0" d="M154 878l2 0 0 0c10,63 63,110 128,110 65,0 119,-47 128,-110l0 0 263 0c23,0 45,-8 63,-22 16,14 36,22 60,22l2 0 0 0c9,63 63,110 128,110 65,0 118,-47 127,-110l0 0 8 0c52,0 99,-43 103,-95l15 -190c1,-11 -28,-6 -39,-28 -96,-190 -87,-224 -157,-224l-172 0 4 -53c5,-52 -35,-95 -87,-95l-521 0c-45,0 -87,32 -99,76l338 0c23,0 42,18 42,41l0 0c0,23 -19,42 -42,42l-147 0 -272 0c-16,0 -29,13 -29,29 0,16 13,29 29,29 146,0 258,0 404,0 23,0 42,19 42,42 0,23 -19,42 -42,42l-306 0c-16,0 -29,13 -29,29 0,16 13,29 29,29l293 0c23,0 41,19 41,42l0 0c0,23 -18,42 -41,42l-67 0 -275 0 -31 0c-16,0 -29,13 -29,29l0 0c0,16 13,29 29,29l27 0 -8 89c-4,52 36,95 88,95zm923 -306c-20,-41 -39,-83 -59,-124 -4,-9 -16,-37 -23,-46 -4,0 -8,0 -10,0l-30 0c0,0 0,1 0,1l-12 139c-1,17 10,30 26,30l108 0zm-306 240c3,-9 6,-19 7,-29l30 -385c1,0 2,0 2,0l84 0 -11 139c-3,35 19,96 86,96l155 0 -11 146c-2,24 -25,46 -50,46l-11 0c-15,-55 -65,-95 -124,-95 -60,0 -110,40 -125,95l-5 0c-12,0 -21,-5 -27,-13zm157 -25c39,0 72,32 72,72 0,40 -33,72 -72,72 -40,0 -72,-32 -72,-72 0,-40 32,-72 72,-72zm-644 0c40,0 72,32 72,72 0,40 -32,72 -72,72 -39,0 -72,-32 -72,-72 0,-40 33,-72 72,-72z"/>
 </g>
</svg>
