<?xml version="1.0" encoding="UTF-8"?>
<!DOCTYPE svg PUBLIC "-//W3C//DTD SVG 1.1//EN" "http://www.w3.org/Graphics/SVG/1.1/DTD/svg11.dtd">
<!-- Creator: CorelDRAW X7 -->
<svg xmlns="http://www.w3.org/2000/svg" xml:space="preserve" width="1.1811in" height="1.1811in" version="1.1" style="shape-rendering:geometricPrecision; text-rendering:geometricPrecision; image-rendering:optimizeQuality; fill-rule:evenodd; clip-rule:evenodd"
viewBox="0 0 1181 1181"
 xmlns:xlink="http://www.w3.org/1999/xlink">
 <defs>
  <style type="text/css">
   <![CDATA[
    .fil0 {fill:#348FE9}
   ]]>
  </style>
 </defs>
 <g id="Layer_x0020_1">
  <metadata id="CorelCorpID_0Corel-Layer"/>
  <path class="fil0" d="M248 184l635 0c50,0 90,41 90,90l0 51 -401 0c-50,0 -90,40 -90,89l0 353c0,50 40,90 90,90l401 0 0 51c0,48 -40,89 -90,89l-635 0c-49,0 -89,-40 -89,-89l0 -634c0,-49 40,-90 89,-90zm321 227l453 0 0 359 -453 0 0 -359zm184 110c39,0 70,31 70,70 0,38 -31,69 -70,69 -39,0 -70,-31 -70,-69 0,-39 31,-70 70,-70z"/>
 </g>
</svg>
